<mxfile host="65bd71144e" scale="1.5" border="0">
    <diagram id="C5RBs43oDa-KdzZeNtuy" name="Page-1">
        <mxGraphModel dx="822" dy="621" grid="1" gridSize="10" guides="1" tooltips="1" connect="1" arrows="1" fold="1" page="1" pageScale="1" pageWidth="827" pageHeight="1169" background="none" math="0" shadow="0">
            <root>
                <mxCell id="WIyWlLk6GJQsqaUBKTNV-0"/>
                <mxCell id="WIyWlLk6GJQsqaUBKTNV-1" parent="WIyWlLk6GJQsqaUBKTNV-0"/>
                <mxCell id="unNE9eFc2HXPN7YAADAr-0" value="&lt;h4 style=&quot;line-height: 1.2;&quot;&gt;&lt;font face=&quot;Helvetica&quot;&gt;语音特效变声&lt;/font&gt;&lt;/h4&gt;" style="rounded=1;whiteSpace=wrap;html=1;strokeWidth=3;fillColor=#dae8fc;strokeColor=#6c8ebf;shadow=0;sketch=0;glass=0;fontFamily=Times New Roman;labelBackgroundColor=none;rotation=0;flipH=0;flipV=0;" parent="WIyWlLk6GJQsqaUBKTNV-1" vertex="1">
                    <mxGeometry x="364" y="200" width="120" height="60" as="geometry"/>
                </mxCell>
                <mxCell id="unNE9eFc2HXPN7YAADAr-14" value="" style="edgeStyle=orthogonalEdgeStyle;rounded=0;orthogonalLoop=1;jettySize=auto;html=1;fontFamily=Helvetica;fontSize=11;strokeColor=#7EA6E0;shadow=0;strokeWidth=5;" parent="WIyWlLk6GJQsqaUBKTNV-1" source="unNE9eFc2HXPN7YAADAr-2" target="unNE9eFc2HXPN7YAADAr-7" edge="1">
                    <mxGeometry relative="1" as="geometry"/>
                </mxCell>
                <mxCell id="unNE9eFc2HXPN7YAADAr-2" value="&lt;h4 style=&quot;line-height: 1.2;&quot;&gt;&lt;font face=&quot;Helvetica&quot;&gt;语音信号特征提取&lt;/font&gt;&lt;/h4&gt;" style="rounded=1;whiteSpace=wrap;html=1;strokeWidth=3;fillColor=#dae8fc;strokeColor=#6c8ebf;shadow=0;sketch=0;glass=0;fontFamily=Times New Roman;labelBackgroundColor=none;rotation=0;flipH=0;flipV=0;" parent="WIyWlLk6GJQsqaUBKTNV-1" vertex="1">
                    <mxGeometry x="188" y="310" width="120" height="60" as="geometry"/>
                </mxCell>
                <mxCell id="unNE9eFc2HXPN7YAADAr-3" value="&lt;font style=&quot;font-size: 12px;&quot;&gt;&lt;b&gt;改变共振峰&lt;/b&gt;&lt;/font&gt;" style="whiteSpace=wrap;html=1;shape=mxgraph.basic.cloud_callout;rounded=1;shadow=0;glass=0;labelBackgroundColor=none;sketch=0;fontFamily=Times New Roman;strokeWidth=3;fillColor=#dae8fc;strokeColor=#6c8ebf;" parent="WIyWlLk6GJQsqaUBKTNV-1" vertex="1">
                    <mxGeometry x="504" y="130" width="116" height="70" as="geometry"/>
                </mxCell>
                <mxCell id="unNE9eFc2HXPN7YAADAr-4" value="&lt;b&gt;改变基频&lt;/b&gt;" style="whiteSpace=wrap;html=1;shape=mxgraph.basic.cloud_callout;rounded=1;shadow=0;glass=0;labelBackgroundColor=none;sketch=0;fontFamily=Times New Roman;strokeWidth=3;fillColor=#dae8fc;strokeColor=#6c8ebf;flipH=1;" parent="WIyWlLk6GJQsqaUBKTNV-1" vertex="1">
                    <mxGeometry x="224" y="130" width="116" height="70" as="geometry"/>
                </mxCell>
                <mxCell id="unNE9eFc2HXPN7YAADAr-5" value="&lt;b&gt;&lt;font style=&quot;font-size: 11px;&quot;&gt;需要保持独立变化&lt;/font&gt;&lt;/b&gt;" style="html=1;shadow=0;dashed=0;align=center;verticalAlign=middle;shape=mxgraph.arrows2.twoWayArrow;dy=0.65;dx=22;rounded=1;glass=0;labelBackgroundColor=none;sketch=0;fontFamily=Times New Roman;strokeWidth=3;fillColor=#dae8fc;strokeColor=#6c8ebf;" parent="WIyWlLk6GJQsqaUBKTNV-1" vertex="1">
                    <mxGeometry x="354" y="140" width="140" height="40" as="geometry"/>
                </mxCell>
                <mxCell id="unNE9eFc2HXPN7YAADAr-15" value="" style="edgeStyle=orthogonalEdgeStyle;rounded=0;orthogonalLoop=1;jettySize=auto;html=1;fontFamily=Helvetica;fontSize=11;strokeColor=#7EA6E0;shadow=0;strokeWidth=5;" parent="WIyWlLk6GJQsqaUBKTNV-1" source="unNE9eFc2HXPN7YAADAr-7" target="unNE9eFc2HXPN7YAADAr-8" edge="1">
                    <mxGeometry relative="1" as="geometry"/>
                </mxCell>
                <mxCell id="unNE9eFc2HXPN7YAADAr-7" value="&lt;h4 style=&quot;line-height: 1.2;&quot;&gt;&lt;font face=&quot;Helvetica&quot;&gt;语音信号变形处理&lt;/font&gt;&lt;/h4&gt;" style="rounded=1;whiteSpace=wrap;html=1;strokeWidth=3;fillColor=#dae8fc;strokeColor=#6c8ebf;shadow=0;sketch=0;glass=0;fontFamily=Times New Roman;labelBackgroundColor=none;rotation=0;flipH=0;flipV=0;" parent="WIyWlLk6GJQsqaUBKTNV-1" vertex="1">
                    <mxGeometry x="350" y="310" width="120" height="60" as="geometry"/>
                </mxCell>
                <mxCell id="unNE9eFc2HXPN7YAADAr-17" value="" style="edgeStyle=orthogonalEdgeStyle;rounded=0;orthogonalLoop=1;jettySize=auto;html=1;fontFamily=Helvetica;fontSize=11;strokeColor=#7EA6E0;shadow=0;strokeWidth=5;" parent="WIyWlLk6GJQsqaUBKTNV-1" source="unNE9eFc2HXPN7YAADAr-8" target="unNE9eFc2HXPN7YAADAr-16" edge="1">
                    <mxGeometry relative="1" as="geometry"/>
                </mxCell>
                <mxCell id="unNE9eFc2HXPN7YAADAr-8" value="&lt;h4 style=&quot;line-height: 1.2;&quot;&gt;&lt;font face=&quot;Helvetica&quot;&gt;语音信号重建&lt;/font&gt;&lt;/h4&gt;" style="rounded=1;whiteSpace=wrap;html=1;strokeWidth=3;fillColor=#dae8fc;strokeColor=#6c8ebf;shadow=0;sketch=0;glass=0;fontFamily=Times New Roman;labelBackgroundColor=none;rotation=0;flipH=0;flipV=0;" parent="WIyWlLk6GJQsqaUBKTNV-1" vertex="1">
                    <mxGeometry x="518" y="310" width="120" height="60" as="geometry"/>
                </mxCell>
                <mxCell id="unNE9eFc2HXPN7YAADAr-18" value="" style="edgeStyle=orthogonalEdgeStyle;rounded=0;orthogonalLoop=1;jettySize=auto;html=1;fontFamily=Helvetica;fontSize=11;strokeColor=#7EA6E0;shadow=0;jumpSize=6;strokeWidth=5;" parent="WIyWlLk6GJQsqaUBKTNV-1" source="unNE9eFc2HXPN7YAADAr-11" target="unNE9eFc2HXPN7YAADAr-2" edge="1">
                    <mxGeometry relative="1" as="geometry"/>
                </mxCell>
                <mxCell id="unNE9eFc2HXPN7YAADAr-11" value="&lt;b&gt;原始语音输入&lt;/b&gt;" style="html=1;shadow=0;dashed=0;align=center;verticalAlign=middle;shape=mxgraph.arrows2.arrow;dy=0.6;dx=40;notch=0;rounded=1;glass=0;labelBackgroundColor=none;sketch=0;fontFamily=Times New Roman;fontSize=12;strokeWidth=3;fillColor=#dae8fc;strokeColor=#6c8ebf;" parent="WIyWlLk6GJQsqaUBKTNV-1" vertex="1">
                    <mxGeometry x="38" y="315" width="110" height="50" as="geometry"/>
                </mxCell>
                <mxCell id="unNE9eFc2HXPN7YAADAr-16" value="&lt;b&gt;变声后语音输出&lt;/b&gt;" style="html=1;shadow=0;dashed=0;align=center;verticalAlign=middle;shape=mxgraph.arrows2.arrow;dy=0.6;dx=40;notch=0;rounded=1;glass=0;labelBackgroundColor=none;sketch=0;fontFamily=Times New Roman;fontSize=12;strokeWidth=3;fillColor=#dae8fc;strokeColor=#6c8ebf;" parent="WIyWlLk6GJQsqaUBKTNV-1" vertex="1">
                    <mxGeometry x="678" y="315" width="110" height="50" as="geometry"/>
                </mxCell>
                <mxCell id="unNE9eFc2HXPN7YAADAr-20" value="" style="endArrow=none;dashed=1;html=1;dashPattern=1 3;strokeWidth=3;rounded=0;shadow=0;fontFamily=Helvetica;fontSize=11;jumpSize=6;strokeColor=#7EA6E0;entryX=0.5;entryY=1;entryDx=0;entryDy=0;exitX=0.5;exitY=0;exitDx=0;exitDy=0;" parent="WIyWlLk6GJQsqaUBKTNV-1" source="unNE9eFc2HXPN7YAADAr-21" target="unNE9eFc2HXPN7YAADAr-2" edge="1">
                    <mxGeometry width="50" height="50" relative="1" as="geometry">
                        <mxPoint x="128" y="420" as="sourcePoint"/>
                        <mxPoint x="238" y="380" as="targetPoint"/>
                    </mxGeometry>
                </mxCell>
                <mxCell id="unNE9eFc2HXPN7YAADAr-21" value="&lt;h4 style=&quot;line-height: 1.2;&quot;&gt;&lt;font face=&quot;Helvetica&quot;&gt;去除直流信号&lt;/font&gt;&lt;/h4&gt;" style="rounded=1;whiteSpace=wrap;html=1;strokeWidth=3;fillColor=#fad9d5;strokeColor=#ae4132;shadow=0;sketch=0;glass=0;fontFamily=Times New Roman;labelBackgroundColor=none;rotation=0;flipH=0;flipV=0;" parent="WIyWlLk6GJQsqaUBKTNV-1" vertex="1">
                    <mxGeometry x="48" y="430" width="120" height="60" as="geometry"/>
                </mxCell>
                <mxCell id="unNE9eFc2HXPN7YAADAr-22" value="&lt;h4 style=&quot;line-height: 1.2;&quot;&gt;&lt;font face=&quot;Helvetica&quot;&gt;谱减法去除噪声&lt;/font&gt;&lt;/h4&gt;&lt;span style=&quot;color: rgba(0, 0, 0, 0); font-family: monospace; font-size: 0px;&quot;&gt;&lt;div style=&quot;&quot;&gt;&lt;span style=&quot;background-color: initial;&quot;&gt;%3CmxGraphModel%3E%3Croot%3E%3CmxCell%20id%3D%220%22%2F%3E%3CmxCell%20id%3D%221%22%20parent%3D%220%22%2F%3E%3CmxCell%20id%3D%222%22%20value%3D%22%26lt%3Bh4%20style%3D%26quot%3Bline-height%3A%201.2%3B%26quot%3B%26gt%3B%26lt%3Bfont%20face%3D%26quot%3BHelvetica%26quot%3B%26gt%3B%E8%AF%AD%E9%9F%B3%E4%BF%A1%E5%8F%B7%E7%89%B9%E5%BE%81%E6%8F%90%E5%8F%96%26lt%3B%2Ffont%26gt%3B%26lt%3B%2Fh4%26gt%3B%22%20style%3D%22rounded%3D1%3BwhiteSpace%3Dwrap%3Bhtml%3D1%3BstrokeWidth%3D3%3BfillColor%3D%23dae8fc%3BstrokeColor%3D%236c8ebf%3Bshadow%3D0%3Bsketch%3D0%3Bglass%3D0%3BfontFamily%3DTimes%20New%20Roman%3BlabelBackgroundColor%3Dnone%3Brotation%3D0%3BflipH%3D0%3BflipV%3D0%3B%22%20vertex%3D%221%22%20parent%3D%221%22%3E%3CmxGeometry%20x%3D%22200%22%20y%3D%22370%22%20width%3D%22120%22%20height%3D%2260%22%20as%3D%22geometry%22%2F%3E%3C%2FmxCell%3E%3C%2Froot%3E%3C%2FmxGraphModel%3E&lt;/span&gt;&lt;/div&gt;&lt;/span&gt;" style="rounded=1;whiteSpace=wrap;html=1;strokeWidth=3;fillColor=#e1d5e7;strokeColor=#9673a6;shadow=0;sketch=0;glass=0;fontFamily=Times New Roman;labelBackgroundColor=none;rotation=0;flipH=0;flipV=0;align=center;" parent="WIyWlLk6GJQsqaUBKTNV-1" vertex="1">
                    <mxGeometry x="98" y="480" width="120" height="60" as="geometry"/>
                </mxCell>
                <mxCell id="unNE9eFc2HXPN7YAADAr-23" value="&lt;h4 style=&quot;line-height: 1.2&quot;&gt;&lt;font face=&quot;Helvetica&quot;&gt;基于pYIN&lt;/font&gt;算法的基音频率提取&lt;/h4&gt;" style="rounded=1;whiteSpace=wrap;html=1;strokeWidth=3;fillColor=#ffe6cc;strokeColor=#d79b00;shadow=0;sketch=0;glass=0;fontFamily=Times New Roman;labelBackgroundColor=none;rotation=0;flipH=0;flipV=0;align=center;" parent="WIyWlLk6GJQsqaUBKTNV-1" vertex="1">
                    <mxGeometry x="148" y="525" width="120" height="60" as="geometry"/>
                </mxCell>
                <mxCell id="unNE9eFc2HXPN7YAADAr-24" value="&lt;h4 style=&quot;line-height: 1.2;&quot;&gt;&lt;font face=&quot;Helvetica&quot;&gt;基于倒谱法的共振峰提取&lt;/font&gt;&lt;/h4&gt;" style="rounded=1;whiteSpace=wrap;html=1;strokeWidth=3;fillColor=#f5f5f5;strokeColor=#666666;shadow=0;sketch=0;glass=0;fontFamily=Times New Roman;labelBackgroundColor=none;rotation=0;flipH=0;flipV=0;align=center;fontColor=#333333;" parent="WIyWlLk6GJQsqaUBKTNV-1" vertex="1">
                    <mxGeometry x="188" y="580" width="120" height="60" as="geometry"/>
                </mxCell>
                <mxCell id="unNE9eFc2HXPN7YAADAr-26" value="&lt;h4 style=&quot;line-height: 1.2;&quot;&gt;&lt;font face=&quot;Helvetica&quot;&gt;调整基频和共振峰&lt;/font&gt;&lt;/h4&gt;" style="rounded=1;whiteSpace=wrap;html=1;strokeWidth=3;fillColor=#fad9d5;strokeColor=#ae4132;shadow=0;sketch=0;glass=0;fontFamily=Times New Roman;labelBackgroundColor=none;rotation=0;flipH=0;flipV=0;align=center;" parent="WIyWlLk6GJQsqaUBKTNV-1" vertex="1">
                    <mxGeometry x="348" y="430" width="120" height="60" as="geometry"/>
                </mxCell>
                <mxCell id="unNE9eFc2HXPN7YAADAr-28" value="" style="endArrow=none;dashed=1;html=1;dashPattern=1 3;strokeWidth=3;rounded=0;shadow=0;fontFamily=Helvetica;fontSize=11;jumpSize=6;strokeColor=#7EA6E0;exitX=0.5;exitY=1;exitDx=0;exitDy=0;entryX=0.5;entryY=0;entryDx=0;entryDy=0;" parent="WIyWlLk6GJQsqaUBKTNV-1" source="unNE9eFc2HXPN7YAADAr-7" target="unNE9eFc2HXPN7YAADAr-26" edge="1">
                    <mxGeometry width="50" height="50" relative="1" as="geometry">
                        <mxPoint x="148" y="440" as="sourcePoint"/>
                        <mxPoint x="418" y="500" as="targetPoint"/>
                    </mxGeometry>
                </mxCell>
                <mxCell id="unNE9eFc2HXPN7YAADAr-31" value="&lt;h4 style=&quot;line-height: 1.2&quot;&gt;&lt;font face=&quot;Helvetica&quot;&gt;基于WSOLA算法的语音信号重建&lt;/font&gt;&lt;/h4&gt;" style="rounded=1;whiteSpace=wrap;html=1;strokeWidth=3;fillColor=#fad9d5;strokeColor=#ae4132;shadow=0;sketch=0;glass=0;fontFamily=Times New Roman;labelBackgroundColor=none;rotation=0;flipH=0;flipV=0;align=center;" parent="WIyWlLk6GJQsqaUBKTNV-1" vertex="1">
                    <mxGeometry x="518" y="430" width="120" height="60" as="geometry"/>
                </mxCell>
                <mxCell id="unNE9eFc2HXPN7YAADAr-32" value="" style="endArrow=none;dashed=1;html=1;dashPattern=1 3;strokeWidth=3;rounded=0;shadow=0;fontFamily=Helvetica;fontSize=11;jumpSize=6;strokeColor=#7EA6E0;exitX=0.5;exitY=1;exitDx=0;exitDy=0;entryX=0.5;entryY=0;entryDx=0;entryDy=0;" parent="WIyWlLk6GJQsqaUBKTNV-1" source="unNE9eFc2HXPN7YAADAr-8" target="unNE9eFc2HXPN7YAADAr-31" edge="1">
                    <mxGeometry width="50" height="50" relative="1" as="geometry">
                        <mxPoint x="419.9999999999998" y="380" as="sourcePoint"/>
                        <mxPoint x="418" y="440" as="targetPoint"/>
                    </mxGeometry>
                </mxCell>
                <mxCell id="unNE9eFc2HXPN7YAADAr-33" value="&lt;font style=&quot;font-size: 18px&quot; face=&quot;Times New Roman&quot; color=&quot;#ff6666&quot;&gt;根据已知基音频率和共振峰调整&lt;/font&gt;" style="text;html=1;strokeColor=none;fillColor=none;align=center;verticalAlign=middle;whiteSpace=wrap;rounded=0;shadow=0;glass=0;labelBackgroundColor=default;sketch=0;fontFamily=Helvetica;fontSize=11;" parent="WIyWlLk6GJQsqaUBKTNV-1" vertex="1">
                    <mxGeometry x="418" y="570" width="128" height="30" as="geometry"/>
                </mxCell>
                <mxCell id="Hglp7riGXhn3OsSaJGby-0" value="" style="endArrow=none;dashed=1;html=1;dashPattern=1 3;strokeWidth=3;rounded=0;shadow=0;fontFamily=Helvetica;fontSize=11;jumpSize=6;strokeColor=#7EA6E0;exitX=0.75;exitY=0;exitDx=0;exitDy=0;" parent="WIyWlLk6GJQsqaUBKTNV-1" source="unNE9eFc2HXPN7YAADAr-22" edge="1">
                    <mxGeometry width="50" height="50" relative="1" as="geometry">
                        <mxPoint x="118" y="440" as="sourcePoint"/>
                        <mxPoint x="240" y="370" as="targetPoint"/>
                    </mxGeometry>
                </mxCell>
                <mxCell id="54TQ98w44WzLP-O-yXKn-0" value="" style="group" parent="WIyWlLk6GJQsqaUBKTNV-1" vertex="1" connectable="0">
                    <mxGeometry x="408" y="490" as="geometry"/>
                </mxCell>
                <mxCell id="unNE9eFc2HXPN7YAADAr-30" style="edgeStyle=orthogonalEdgeStyle;rounded=0;jumpSize=6;orthogonalLoop=1;jettySize=auto;html=1;shadow=0;fontFamily=Helvetica;fontSize=11;strokeColor=#6c8ebf;strokeWidth=5;fillColor=#dae8fc;" parent="54TQ98w44WzLP-O-yXKn-0" source="unNE9eFc2HXPN7YAADAr-24" edge="1">
                    <mxGeometry relative="1" as="geometry">
                        <mxPoint as="targetPoint"/>
                    </mxGeometry>
                </mxCell>
                <mxCell id="unNE9eFc2HXPN7YAADAr-29" value="" style="edgeStyle=orthogonalEdgeStyle;rounded=0;orthogonalLoop=1;jettySize=auto;html=1;fontFamily=Helvetica;fontSize=11;strokeColor=#6c8ebf;shadow=0;jumpSize=6;strokeWidth=5;exitX=1;exitY=0.5;exitDx=0;exitDy=0;entryX=0.5;entryY=1;entryDx=0;entryDy=0;fillColor=#dae8fc;" parent="54TQ98w44WzLP-O-yXKn-0" source="unNE9eFc2HXPN7YAADAr-23" target="unNE9eFc2HXPN7YAADAr-26" edge="1">
                    <mxGeometry relative="1" as="geometry">
                        <mxPoint x="-130" y="39.75999999999999" as="sourcePoint"/>
                        <mxPoint x="-70" y="20" as="targetPoint"/>
                    </mxGeometry>
                </mxCell>
            </root>
        </mxGraphModel>
    </diagram>
    <diagram id="Oixcn0oB0-SHqQkWW3Qg" name="第 2 页">
        <mxGraphModel dx="965" dy="565" grid="1" gridSize="10" guides="1" tooltips="1" connect="1" arrows="1" fold="1" page="1" pageScale="1" pageWidth="827" pageHeight="1169" math="0" shadow="0">
            <root>
                <mxCell id="v_U4Oe2IhSoy8BmcgNwT-0"/>
                <mxCell id="v_U4Oe2IhSoy8BmcgNwT-1" parent="v_U4Oe2IhSoy8BmcgNwT-0"/>
                <mxCell id="pHfwIhQCht6Feb42XaMj-0" value="&lt;h4 style=&quot;line-height: 1.2;&quot;&gt;&lt;font face=&quot;Helvetica&quot;&gt;语音特效变声&lt;/font&gt;&lt;/h4&gt;" style="rounded=1;whiteSpace=wrap;html=1;strokeWidth=3;fillColor=#dae8fc;strokeColor=#6c8ebf;shadow=0;sketch=0;glass=0;fontFamily=Times New Roman;labelBackgroundColor=none;rotation=0;flipH=0;flipV=0;" vertex="1" parent="v_U4Oe2IhSoy8BmcgNwT-1">
                    <mxGeometry x="364" y="200" width="120" height="60" as="geometry"/>
                </mxCell>
                <mxCell id="pHfwIhQCht6Feb42XaMj-1" value="&lt;font style=&quot;font-size: 12px;&quot;&gt;&lt;b&gt;改变共振峰&lt;/b&gt;&lt;/font&gt;" style="whiteSpace=wrap;html=1;shape=mxgraph.basic.cloud_callout;rounded=1;shadow=0;glass=0;labelBackgroundColor=none;sketch=0;fontFamily=Times New Roman;strokeWidth=3;fillColor=#dae8fc;strokeColor=#6c8ebf;" vertex="1" parent="v_U4Oe2IhSoy8BmcgNwT-1">
                    <mxGeometry x="504" y="130" width="116" height="70" as="geometry"/>
                </mxCell>
                <mxCell id="pHfwIhQCht6Feb42XaMj-2" value="&lt;b&gt;改变基频&lt;/b&gt;" style="whiteSpace=wrap;html=1;shape=mxgraph.basic.cloud_callout;rounded=1;shadow=0;glass=0;labelBackgroundColor=none;sketch=0;fontFamily=Times New Roman;strokeWidth=3;fillColor=#dae8fc;strokeColor=#6c8ebf;flipH=1;" vertex="1" parent="v_U4Oe2IhSoy8BmcgNwT-1">
                    <mxGeometry x="224" y="130" width="116" height="70" as="geometry"/>
                </mxCell>
                <mxCell id="pHfwIhQCht6Feb42XaMj-3" value="&lt;b&gt;&lt;font style=&quot;font-size: 11px;&quot;&gt;需要保持独立变化&lt;/font&gt;&lt;/b&gt;" style="html=1;shadow=0;dashed=0;align=center;verticalAlign=middle;shape=mxgraph.arrows2.twoWayArrow;dy=0.65;dx=22;rounded=1;glass=0;labelBackgroundColor=none;sketch=0;fontFamily=Times New Roman;strokeWidth=3;fillColor=#dae8fc;strokeColor=#6c8ebf;" vertex="1" parent="v_U4Oe2IhSoy8BmcgNwT-1">
                    <mxGeometry x="354" y="140" width="140" height="40" as="geometry"/>
                </mxCell>
            </root>
        </mxGraphModel>
    </diagram>
    <diagram id="9ekTKRoff0CPVGSoDEwU" name="第 3 页">
        <mxGraphModel dx="1644" dy="1242" grid="1" gridSize="10" guides="1" tooltips="1" connect="1" arrows="1" fold="1" page="1" pageScale="1" pageWidth="827" pageHeight="1169" math="0" shadow="0">
            <root>
                <mxCell id="UO68y2j3fhpH5fY7scN9-0"/>
                <mxCell id="UO68y2j3fhpH5fY7scN9-1" parent="UO68y2j3fhpH5fY7scN9-0"/>
                <mxCell id="i1c0_gkSLgQ5enReLO2w-1" value="&lt;h4 style=&quot;line-height: 1.2&quot;&gt;&lt;font face=&quot;Helvetica&quot; style=&quot;font-size: 11px&quot;&gt;Pre-emphasis&lt;/font&gt;&lt;/h4&gt;" style="rounded=1;whiteSpace=wrap;html=1;strokeWidth=2;shadow=0;sketch=0;glass=0;fontFamily=Times New Roman;labelBackgroundColor=none;rotation=0;flipH=0;flipV=0;absoluteArcSize=0;" parent="UO68y2j3fhpH5fY7scN9-1" vertex="1">
                    <mxGeometry x="180" y="50" width="80" height="30" as="geometry"/>
                </mxCell>
                <mxCell id="i1c0_gkSLgQ5enReLO2w-3" value="&lt;h4 style=&quot;line-height: 1.2&quot;&gt;&lt;font face=&quot;Helvetica&quot;&gt;Enframe&lt;/font&gt;&lt;/h4&gt;" style="rounded=0;whiteSpace=wrap;html=1;strokeWidth=2;shadow=0;sketch=0;glass=0;fontFamily=Times New Roman;labelBackgroundColor=none;rotation=0;flipH=0;flipV=0;" parent="UO68y2j3fhpH5fY7scN9-1" vertex="1">
                    <mxGeometry x="180" y="80" width="80" height="30" as="geometry"/>
                </mxCell>
                <mxCell id="i1c0_gkSLgQ5enReLO2w-6" value="" style="edgeStyle=orthogonalEdgeStyle;rounded=0;orthogonalLoop=1;jettySize=auto;html=1;fontFamily=Helvetica;fontSize=11;shadow=0;jumpSize=6;strokeWidth=2;endSize=2;startSize=0;" parent="UO68y2j3fhpH5fY7scN9-1" target="i1c0_gkSLgQ5enReLO2w-1" edge="1">
                    <mxGeometry relative="1" as="geometry">
                        <mxPoint x="150" y="65" as="sourcePoint"/>
                    </mxGeometry>
                </mxCell>
                <mxCell id="i1c0_gkSLgQ5enReLO2w-23" value="&lt;h4 style=&quot;line-height: 1.2&quot;&gt;&lt;font face=&quot;Helvetica&quot;&gt;VAD&lt;/font&gt;&lt;/h4&gt;" style="rounded=1;whiteSpace=wrap;html=1;strokeWidth=2;shadow=0;sketch=0;glass=0;fontFamily=Times New Roman;labelBackgroundColor=none;rotation=0;flipH=0;flipV=0;" parent="UO68y2j3fhpH5fY7scN9-1" vertex="1">
                    <mxGeometry x="180" y="110" width="80" height="30" as="geometry"/>
                </mxCell>
                <mxCell id="i1c0_gkSLgQ5enReLO2w-27" value="&lt;h4 style=&quot;line-height: 1.2&quot;&gt;&lt;font face=&quot;Helvetica&quot;&gt;DFT&lt;/font&gt;&lt;/h4&gt;" style="rounded=1;whiteSpace=wrap;html=1;strokeWidth=2;shadow=0;sketch=0;glass=0;fontFamily=Times New Roman;labelBackgroundColor=none;rotation=0;flipH=0;flipV=0;" parent="UO68y2j3fhpH5fY7scN9-1" vertex="1">
                    <mxGeometry x="300" y="50" width="80" height="30" as="geometry"/>
                </mxCell>
                <mxCell id="i1c0_gkSLgQ5enReLO2w-28" value="&lt;h4 style=&quot;line-height: 1.2&quot;&gt;&lt;font face=&quot;Helvetica&quot;&gt;log(| · |)&lt;/font&gt;&lt;/h4&gt;" style="rounded=0;whiteSpace=wrap;html=1;strokeWidth=2;shadow=0;sketch=0;glass=0;fontFamily=Times New Roman;labelBackgroundColor=none;rotation=0;flipH=0;flipV=0;" parent="UO68y2j3fhpH5fY7scN9-1" vertex="1">
                    <mxGeometry x="300" y="80" width="80" height="30" as="geometry"/>
                </mxCell>
                <mxCell id="i1c0_gkSLgQ5enReLO2w-29" value="&lt;h4 style=&quot;line-height: 1.2&quot;&gt;&lt;font face=&quot;Helvetica&quot;&gt;IDFT&lt;/font&gt;&lt;/h4&gt;" style="rounded=1;whiteSpace=wrap;html=1;strokeWidth=2;shadow=0;sketch=0;glass=0;fontFamily=Times New Roman;labelBackgroundColor=none;rotation=0;flipH=0;flipV=0;" parent="UO68y2j3fhpH5fY7scN9-1" vertex="1">
                    <mxGeometry x="300" y="110" width="80" height="30" as="geometry"/>
                </mxCell>
                <mxCell id="i1c0_gkSLgQ5enReLO2w-33" value="&lt;h4 style=&quot;line-height: 1.2&quot;&gt;&lt;font face=&quot;Helvetica&quot;&gt;DFT&lt;/font&gt;&lt;/h4&gt;" style="rounded=0;whiteSpace=wrap;html=1;strokeWidth=2;shadow=0;sketch=0;glass=0;fontFamily=Times New Roman;labelBackgroundColor=none;rotation=0;flipH=0;flipV=0;" parent="UO68y2j3fhpH5fY7scN9-1" vertex="1">
                    <mxGeometry x="420" y="80" width="80" height="30" as="geometry"/>
                </mxCell>
                <mxCell id="i1c0_gkSLgQ5enReLO2w-34" value="&lt;h4 style=&quot;line-height: 1.2&quot;&gt;&lt;font face=&quot;Helvetica&quot;&gt;Local Max&lt;/font&gt;&lt;/h4&gt;" style="rounded=1;whiteSpace=wrap;html=1;strokeWidth=2;shadow=0;sketch=0;glass=0;fontFamily=Times New Roman;labelBackgroundColor=none;rotation=0;flipH=0;flipV=0;" parent="UO68y2j3fhpH5fY7scN9-1" vertex="1">
                    <mxGeometry x="420" y="110" width="80" height="30" as="geometry"/>
                </mxCell>
                <mxCell id="i1c0_gkSLgQ5enReLO2w-38" value="&lt;b&gt;Output Formant&lt;/b&gt;" style="rounded=0;whiteSpace=wrap;html=1;strokeWidth=2;" parent="UO68y2j3fhpH5fY7scN9-1" vertex="1">
                    <mxGeometry x="520" y="110" width="100" height="30" as="geometry"/>
                </mxCell>
                <mxCell id="i1c0_gkSLgQ5enReLO2w-16" value="&lt;h4 style=&quot;line-height: 1.2&quot;&gt;&lt;font face=&quot;Helvetica&quot;&gt;LP FIR Win&lt;/font&gt;&lt;/h4&gt;" style="rounded=1;whiteSpace=wrap;html=1;strokeWidth=2;shadow=0;sketch=0;glass=0;fontFamily=Times New Roman;labelBackgroundColor=none;rotation=0;flipH=0;flipV=0;align=center;" parent="UO68y2j3fhpH5fY7scN9-1" vertex="1">
                    <mxGeometry x="420" y="30" width="80" height="20" as="geometry"/>
                </mxCell>
                <mxCell id="i1c0_gkSLgQ5enReLO2w-32" value="&lt;h4 style=&quot;line-height: 1.2&quot;&gt;&lt;font face=&quot;Helvetica&quot;&gt;LPF&lt;/font&gt;&lt;/h4&gt;" style="rounded=0;whiteSpace=wrap;html=1;strokeWidth=2;shadow=0;sketch=0;glass=0;fontFamily=Times New Roman;labelBackgroundColor=none;rotation=0;flipH=0;flipV=0;" parent="UO68y2j3fhpH5fY7scN9-1" vertex="1">
                    <mxGeometry x="420" y="50" width="80" height="30" as="geometry"/>
                </mxCell>
                <mxCell id="i1c0_gkSLgQ5enReLO2w-40" value="&lt;b&gt;Input x(n)&lt;/b&gt;" style="rounded=0;whiteSpace=wrap;html=1;strokeWidth=2;" parent="UO68y2j3fhpH5fY7scN9-1" vertex="1">
                    <mxGeometry x="60" y="52.5" width="90" height="25" as="geometry"/>
                </mxCell>
                <mxCell id="i1c0_gkSLgQ5enReLO2w-41" value="" style="edgeStyle=orthogonalEdgeStyle;rounded=0;orthogonalLoop=1;jettySize=auto;html=1;fontFamily=Helvetica;fontSize=11;shadow=0;jumpSize=6;strokeWidth=2;exitX=1;exitY=0.5;exitDx=0;exitDy=0;entryX=0;entryY=0.5;entryDx=0;entryDy=0;endSize=2;startSize=0;" parent="UO68y2j3fhpH5fY7scN9-1" source="i1c0_gkSLgQ5enReLO2w-23" target="i1c0_gkSLgQ5enReLO2w-27" edge="1">
                    <mxGeometry relative="1" as="geometry">
                        <mxPoint x="160" y="75" as="sourcePoint"/>
                        <mxPoint x="190" y="75" as="targetPoint"/>
                    </mxGeometry>
                </mxCell>
                <mxCell id="i1c0_gkSLgQ5enReLO2w-42" value="" style="edgeStyle=orthogonalEdgeStyle;rounded=0;orthogonalLoop=1;jettySize=auto;html=1;fontFamily=Helvetica;fontSize=11;shadow=0;jumpSize=6;strokeWidth=2;exitX=1;exitY=0.5;exitDx=0;exitDy=0;entryX=0;entryY=0.5;entryDx=0;entryDy=0;endSize=2;startSize=0;" parent="UO68y2j3fhpH5fY7scN9-1" source="i1c0_gkSLgQ5enReLO2w-29" target="i1c0_gkSLgQ5enReLO2w-32" edge="1">
                    <mxGeometry relative="1" as="geometry">
                        <mxPoint x="270" y="135" as="sourcePoint"/>
                        <mxPoint x="310" y="75" as="targetPoint"/>
                    </mxGeometry>
                </mxCell>
                <mxCell id="i1c0_gkSLgQ5enReLO2w-44" value="" style="edgeStyle=orthogonalEdgeStyle;rounded=0;orthogonalLoop=1;jettySize=auto;html=1;fontFamily=Helvetica;fontSize=11;shadow=0;jumpSize=6;strokeWidth=2;endSize=2;startSize=0;entryX=0;entryY=0.5;entryDx=0;entryDy=0;exitX=1;exitY=0.5;exitDx=0;exitDy=0;" parent="UO68y2j3fhpH5fY7scN9-1" source="i1c0_gkSLgQ5enReLO2w-34" target="i1c0_gkSLgQ5enReLO2w-38" edge="1">
                    <mxGeometry relative="1" as="geometry">
                        <mxPoint x="160" y="75" as="sourcePoint"/>
                        <mxPoint x="190" y="75" as="targetPoint"/>
                    </mxGeometry>
                </mxCell>
            </root>
        </mxGraphModel>
    </diagram>
    <diagram name="第 3 页 的副本" id="J1ou7C6Nk3RcT4JgTEYG">
        <mxGraphModel dx="822" dy="621" grid="1" gridSize="10" guides="1" tooltips="1" connect="1" arrows="1" fold="1" page="1" pageScale="1" pageWidth="827" pageHeight="1169" math="0" shadow="0">
            <root>
                <mxCell id="9-8y8Ll6EvvNsxRsTl8B-0"/>
                <mxCell id="9-8y8Ll6EvvNsxRsTl8B-1" parent="9-8y8Ll6EvvNsxRsTl8B-0"/>
                <mxCell id="9-8y8Ll6EvvNsxRsTl8B-2" value="&lt;h4 style=&quot;line-height: 1.2&quot;&gt;&lt;font face=&quot;Helvetica&quot; style=&quot;font-size: 11px&quot;&gt;Pre-emphasis&lt;/font&gt;&lt;/h4&gt;" style="rounded=1;whiteSpace=wrap;html=1;strokeWidth=2;shadow=0;sketch=0;glass=0;fontFamily=Times New Roman;labelBackgroundColor=none;rotation=0;flipH=0;flipV=0;absoluteArcSize=0;" vertex="1" parent="9-8y8Ll6EvvNsxRsTl8B-1">
                    <mxGeometry x="180" y="50" width="80" height="30" as="geometry"/>
                </mxCell>
                <mxCell id="9-8y8Ll6EvvNsxRsTl8B-3" value="&lt;h4 style=&quot;line-height: 1.2&quot;&gt;&lt;font face=&quot;Helvetica&quot;&gt;Enframe&lt;/font&gt;&lt;/h4&gt;" style="rounded=0;whiteSpace=wrap;html=1;strokeWidth=2;shadow=0;sketch=0;glass=0;fontFamily=Times New Roman;labelBackgroundColor=none;rotation=0;flipH=0;flipV=0;" vertex="1" parent="9-8y8Ll6EvvNsxRsTl8B-1">
                    <mxGeometry x="180" y="80" width="80" height="30" as="geometry"/>
                </mxCell>
                <mxCell id="9-8y8Ll6EvvNsxRsTl8B-4" value="" style="edgeStyle=orthogonalEdgeStyle;rounded=0;orthogonalLoop=1;jettySize=auto;html=1;fontFamily=Helvetica;fontSize=11;shadow=0;jumpSize=6;strokeWidth=2;endSize=2;startSize=0;" edge="1" parent="9-8y8Ll6EvvNsxRsTl8B-1" target="9-8y8Ll6EvvNsxRsTl8B-2">
                    <mxGeometry relative="1" as="geometry">
                        <mxPoint x="150" y="65" as="sourcePoint"/>
                    </mxGeometry>
                </mxCell>
                <mxCell id="9-8y8Ll6EvvNsxRsTl8B-5" value="&lt;h4 style=&quot;line-height: 1.2&quot;&gt;&lt;font face=&quot;Helvetica&quot;&gt;VAD&lt;/font&gt;&lt;/h4&gt;" style="rounded=1;whiteSpace=wrap;html=1;strokeWidth=2;shadow=0;sketch=0;glass=0;fontFamily=Times New Roman;labelBackgroundColor=none;rotation=0;flipH=0;flipV=0;" vertex="1" parent="9-8y8Ll6EvvNsxRsTl8B-1">
                    <mxGeometry x="180" y="110" width="80" height="30" as="geometry"/>
                </mxCell>
                <mxCell id="9-8y8Ll6EvvNsxRsTl8B-6" value="&lt;h4 style=&quot;line-height: 1.2&quot;&gt;&lt;font face=&quot;Helvetica&quot;&gt;DFT&lt;/font&gt;&lt;/h4&gt;" style="rounded=1;whiteSpace=wrap;html=1;strokeWidth=2;shadow=0;sketch=0;glass=0;fontFamily=Times New Roman;labelBackgroundColor=none;rotation=0;flipH=0;flipV=0;" vertex="1" parent="9-8y8Ll6EvvNsxRsTl8B-1">
                    <mxGeometry x="300" y="50" width="80" height="30" as="geometry"/>
                </mxCell>
                <mxCell id="9-8y8Ll6EvvNsxRsTl8B-7" value="&lt;h4 style=&quot;line-height: 1.2&quot;&gt;&lt;font face=&quot;Helvetica&quot;&gt;log(| · |)&lt;/font&gt;&lt;/h4&gt;" style="rounded=0;whiteSpace=wrap;html=1;strokeWidth=2;shadow=0;sketch=0;glass=0;fontFamily=Times New Roman;labelBackgroundColor=none;rotation=0;flipH=0;flipV=0;" vertex="1" parent="9-8y8Ll6EvvNsxRsTl8B-1">
                    <mxGeometry x="300" y="80" width="80" height="30" as="geometry"/>
                </mxCell>
                <mxCell id="9-8y8Ll6EvvNsxRsTl8B-8" value="&lt;h4 style=&quot;line-height: 1.2&quot;&gt;&lt;font face=&quot;Helvetica&quot;&gt;IDFT&lt;/font&gt;&lt;/h4&gt;" style="rounded=1;whiteSpace=wrap;html=1;strokeWidth=2;shadow=0;sketch=0;glass=0;fontFamily=Times New Roman;labelBackgroundColor=none;rotation=0;flipH=0;flipV=0;" vertex="1" parent="9-8y8Ll6EvvNsxRsTl8B-1">
                    <mxGeometry x="300" y="110" width="80" height="30" as="geometry"/>
                </mxCell>
                <mxCell id="9-8y8Ll6EvvNsxRsTl8B-9" value="&lt;h4 style=&quot;line-height: 1.2&quot;&gt;&lt;font face=&quot;Helvetica&quot;&gt;DFT&lt;/font&gt;&lt;/h4&gt;" style="rounded=0;whiteSpace=wrap;html=1;strokeWidth=2;shadow=0;sketch=0;glass=0;fontFamily=Times New Roman;labelBackgroundColor=none;rotation=0;flipH=0;flipV=0;" vertex="1" parent="9-8y8Ll6EvvNsxRsTl8B-1">
                    <mxGeometry x="420" y="80" width="80" height="30" as="geometry"/>
                </mxCell>
                <mxCell id="9-8y8Ll6EvvNsxRsTl8B-10" value="&lt;h4 style=&quot;line-height: 1.2&quot;&gt;&lt;font face=&quot;Helvetica&quot;&gt;Local Max&lt;/font&gt;&lt;/h4&gt;" style="rounded=1;whiteSpace=wrap;html=1;strokeWidth=2;shadow=0;sketch=0;glass=0;fontFamily=Times New Roman;labelBackgroundColor=none;rotation=0;flipH=0;flipV=0;" vertex="1" parent="9-8y8Ll6EvvNsxRsTl8B-1">
                    <mxGeometry x="420" y="110" width="80" height="30" as="geometry"/>
                </mxCell>
                <mxCell id="9-8y8Ll6EvvNsxRsTl8B-11" value="&lt;b&gt;Output Formant&lt;/b&gt;" style="rounded=0;whiteSpace=wrap;html=1;strokeWidth=2;" vertex="1" parent="9-8y8Ll6EvvNsxRsTl8B-1">
                    <mxGeometry x="520" y="110" width="100" height="30" as="geometry"/>
                </mxCell>
                <mxCell id="9-8y8Ll6EvvNsxRsTl8B-12" value="&lt;h4 style=&quot;line-height: 1.2&quot;&gt;&lt;font face=&quot;Helvetica&quot;&gt;LP FIR Win&lt;/font&gt;&lt;/h4&gt;" style="rounded=1;whiteSpace=wrap;html=1;strokeWidth=2;shadow=0;sketch=0;glass=0;fontFamily=Times New Roman;labelBackgroundColor=none;rotation=0;flipH=0;flipV=0;align=center;" vertex="1" parent="9-8y8Ll6EvvNsxRsTl8B-1">
                    <mxGeometry x="420" y="30" width="80" height="20" as="geometry"/>
                </mxCell>
                <mxCell id="9-8y8Ll6EvvNsxRsTl8B-13" value="&lt;h4 style=&quot;line-height: 1.2&quot;&gt;&lt;font face=&quot;Helvetica&quot;&gt;LPF&lt;/font&gt;&lt;/h4&gt;" style="rounded=0;whiteSpace=wrap;html=1;strokeWidth=2;shadow=0;sketch=0;glass=0;fontFamily=Times New Roman;labelBackgroundColor=none;rotation=0;flipH=0;flipV=0;" vertex="1" parent="9-8y8Ll6EvvNsxRsTl8B-1">
                    <mxGeometry x="420" y="50" width="80" height="30" as="geometry"/>
                </mxCell>
                <mxCell id="9-8y8Ll6EvvNsxRsTl8B-14" value="&lt;b&gt;Input x(n)&lt;/b&gt;" style="rounded=0;whiteSpace=wrap;html=1;strokeWidth=2;" vertex="1" parent="9-8y8Ll6EvvNsxRsTl8B-1">
                    <mxGeometry x="60" y="52.5" width="90" height="25" as="geometry"/>
                </mxCell>
                <mxCell id="9-8y8Ll6EvvNsxRsTl8B-15" value="" style="edgeStyle=orthogonalEdgeStyle;rounded=0;orthogonalLoop=1;jettySize=auto;html=1;fontFamily=Helvetica;fontSize=11;shadow=0;jumpSize=6;strokeWidth=2;exitX=1;exitY=0.5;exitDx=0;exitDy=0;entryX=0;entryY=0.5;entryDx=0;entryDy=0;endSize=2;startSize=0;" edge="1" parent="9-8y8Ll6EvvNsxRsTl8B-1" source="9-8y8Ll6EvvNsxRsTl8B-5" target="9-8y8Ll6EvvNsxRsTl8B-6">
                    <mxGeometry relative="1" as="geometry">
                        <mxPoint x="160" y="75" as="sourcePoint"/>
                        <mxPoint x="190" y="75" as="targetPoint"/>
                    </mxGeometry>
                </mxCell>
                <mxCell id="9-8y8Ll6EvvNsxRsTl8B-16" value="" style="edgeStyle=orthogonalEdgeStyle;rounded=0;orthogonalLoop=1;jettySize=auto;html=1;fontFamily=Helvetica;fontSize=11;shadow=0;jumpSize=6;strokeWidth=2;exitX=1;exitY=0.5;exitDx=0;exitDy=0;entryX=0;entryY=0.5;entryDx=0;entryDy=0;endSize=2;startSize=0;" edge="1" parent="9-8y8Ll6EvvNsxRsTl8B-1" source="9-8y8Ll6EvvNsxRsTl8B-8" target="9-8y8Ll6EvvNsxRsTl8B-13">
                    <mxGeometry relative="1" as="geometry">
                        <mxPoint x="270" y="135" as="sourcePoint"/>
                        <mxPoint x="310" y="75" as="targetPoint"/>
                    </mxGeometry>
                </mxCell>
                <mxCell id="9-8y8Ll6EvvNsxRsTl8B-17" value="" style="edgeStyle=orthogonalEdgeStyle;rounded=0;orthogonalLoop=1;jettySize=auto;html=1;fontFamily=Helvetica;fontSize=11;shadow=0;jumpSize=6;strokeWidth=2;endSize=2;startSize=0;entryX=0;entryY=0.5;entryDx=0;entryDy=0;exitX=1;exitY=0.5;exitDx=0;exitDy=0;" edge="1" parent="9-8y8Ll6EvvNsxRsTl8B-1" source="9-8y8Ll6EvvNsxRsTl8B-10" target="9-8y8Ll6EvvNsxRsTl8B-11">
                    <mxGeometry relative="1" as="geometry">
                        <mxPoint x="160" y="75" as="sourcePoint"/>
                        <mxPoint x="190" y="75" as="targetPoint"/>
                    </mxGeometry>
                </mxCell>
            </root>
        </mxGraphModel>
    </diagram>
</mxfile>